<?xml version="1.0" encoding="UTF-8"?>
<svg id="Layer_1" data-name="Layer 1" xmlns="http://www.w3.org/2000/svg" viewBox="0 0 224.31 306.07">
  <path d="m111.48,306.02c-31.81,0-63.61,0-95.42,0-2.78,0-5.51-.07-8.19-1.13C2.48,302.77.02,298.81,0,293.15c-.01-3.55.65-7.02,1.06-10.53.84-7.13,1.73-14.26,2.64-21.38.92-7.2,1.91-14.4,2.83-21.6.83-6.51,1.59-13.02,2.42-19.53,1.01-7.82,2.08-15.63,3.09-23.45.9-7.04,1.73-14.09,2.64-21.13.91-7.04,1.9-14.06,2.83-21.09.9-6.75,1.77-13.49,2.65-20.24.87-6.67,1.73-13.33,2.62-20,1.03-7.69,2.05-15.38,3.13-23.07.91-6.49,1.94-12.96,2.83-19.46.77-5.59,1.53-11.18,2.63-16.72,1.19-5.97,5.02-9.29,11.07-9.83,8.46-.75,16.92-.51,25.38-.08,1.86.09,3.73.27,5.58-.14,2.06-.46,2.91-1.36,3.2-3.43.11-.82.13-1.66.12-2.49-.05-5.19-.11-10.4.29-15.57.64-8.29,4.44-14.81,11.52-19.35,4.3-2.76,9.06-3.89,14.06-3.99,6.31-.12,12.62-.1,18.93-.01,12.17.16,22.34,8.18,25.04,19.68.84,3.58.82,7.25.89,10.91.06,2.87.01,5.73.01,8.6,0,.33,0,.67,0,1,.16,3.39,1.49,4.82,4.87,4.81,5.73-.02,11.46-.14,17.18-.35,3.87-.14,7.75-.12,11.55.51,5.4.89,8.93,4.11,10.51,9.38,1.22,4.08,1.6,8.31,2.19,12.49,1.25,8.79,2.53,17.58,3.62,26.39,1.13,9.14,2.67,18.23,3.68,27.39.6,5.48,1.7,10.91,2.3,16.39.87,7.92,2.25,15.78,3.15,23.69.5,4.37,1.35,8.7,1.8,13.07.9,8.63,2.56,17.15,3.44,25.78.37,3.59,1.07,7.14,1.5,10.72.73,6.06,1.59,12.1,2.44,18.14,1.18,8.42,2.27,16.86,3.42,25.29,1.66,12.13,3.35,24.25,4.99,36.39.23,1.69.22,3.38-.03,5.09-.94,6.31-6.07,9.41-10.89,10.23-3.81.65-7.62.31-11.43.32-30.1.04-60.21.02-90.31.02h0Zm1.75-29.47c31.39,0,62.78,0,94.17,0,2.08,0,4.15.03,6.23-.03,1.69-.04,2.14-.52,2.2-2.18.01-.33,0-.66-.02-1-.33-6.27-1.38-12.46-2.16-18.67-1.37-10.91-2.94-21.79-4.44-32.69-1.5-10.93-3.01-21.87-4.52-32.8-.96-6.99-1.93-13.98-2.9-20.96-1.05-7.65-2.09-15.29-3.16-22.94-.74-5.26-1.63-10.5-2.26-15.77-.8-6.72-1.73-13.42-2.7-20.11-1-6.94-1.96-13.89-2.87-20.84-.52-3.98-.88-8-1.85-11.92-.26-1.05-.82-1.61-1.86-1.9-1.79-.49-3.61-.49-5.44-.49-47.21,0-94.42,0-141.63,0-1.12,0-2.25-.02-3.34.27-1.58.42-2.74,1.26-3.15,2.98-.28,1.22-.54,2.44-.64,3.67-.65,8.33-2.03,16.56-3.1,24.83-.98,7.57-2.11,15.12-3.11,22.69-1.64,12.38-3.21,24.78-4.84,37.16-1.12,8.52-2.32,17.02-3.43,25.54-.89,6.79-1.58,13.61-2.57,20.38-1.25,8.54-2.32,17.11-3.36,25.68-1.06,8.78-2.33,17.52-3.69,26.26-.47,3.03-1.01,6.06-1.33,9.11-.23,2.19.81,3.23,3,3.42,2.32.19,4.64.3,6.97.3,31.93,0,63.86,0,95.79,0Zm-.14,23.68c29.56,0,59.12,0,88.68,0,3.41,0,6.81-.05,10.21-.28,4.29-.29,7.09-3.85,6.63-7.49-.11-.9-.05-1.83-.12-2.74-.15-1.95-.38-3.88-1.24-5.68-.42-.88-1.05-1.34-2.04-1.34-1.62.01-3.24,0-4.86,0-64.64,0-129.29,0-193.93,0-2.12,0-4.24.12-6.34-.19-1.91-.28-3.09.67-3.9,2.23-.36.69-.64,1.44-.86,2.19-2.02,6.77.57,11.39,7.29,12.9,2.32.52,4.71.4,7.07.4,31.14,0,62.28,0,93.42,0Zm-.42-231.84h0c21.5-.01,43.01-.01,64.51-.01,2.78,0,5.56-.02,8.34.03,1.22.02,1.8-.54,2.07-1.67.49-2.04.61-4.09.46-6.18-.38-5.41-4.32-8.53-8.38-9.42-1.79-.39-3.61-.53-5.44-.53-40.44,0-80.87.01-121.31-.01-3.53,0-7.05.19-10.56.54-2.01.2-4.02.95-4.78,2.9-1.33,3.44-2.37,7.01-2.33,10.76.02,2.12.75,2.9,2.81,3.29,2.55.49,5.13.3,7.7.3,22.29,0,44.59,0,66.88,0Zm-.26-23.25s0,.02,0,.04c7.55,0,15.11,0,22.66,0,1.24,0,2.49,0,3.73-.11,2.37-.21,3.03-.97,2.97-3.35-.14-5.56-.29-11.12-.3-16.69,0-3.05-.61-6.06-2.08-8.76-3.55-6.56-9.32-9.66-16.58-10.26-5.47-.45-10.95-.03-16.43-.2-2.5-.07-4.98.07-7.45.45-6.55,1-11.67,4.12-14.61,10.26-1.21,2.53-1.78,5.28-1.87,8.07-.16,5.11-.18,10.21-.25,15.32-.06,4.19.81,5.19,5.03,5.22,8.38.07,16.77.02,25.15.02Z"/>
  <path d="m111.36,199.37c-6.52,0-13.03,0-19.55,0-.42,0-.83.04-1.24-.01-1.08-.13-2.37.05-2.63-1.5-.25-1.53.68-3.15,2.02-3.64.56-.2,1.13-.23,1.72-.23,13.24,0,26.48,0,39.72.02.53,0,1.08.07,1.6.18,1.79.36,2.34.93,2.25,2.25-.12,1.82-.92,2.71-2.61,2.9-1.54.17-3.07-.04-4.6-.04-5.56,0-11.12,0-16.69,0,0,.02,0,.05,0,.07Z"/>
  <path d="m101.64,161.34c-.16,4.58-2.95,6.9-6.64,6.85-4.03-.05-6.79-1.94-6.98-7.34-.14-3.91,2.78-6.6,6.96-6.61,3.88-.01,6.67,2.96,6.67,7.11Z"/>
  <path d="m136.02,162.01c-.01,3.4-3.23,6.29-6.93,6.22-3.69-.07-6.73-3.15-6.7-6.79.04-4,3.11-7.21,6.88-7.19,4.04.01,6.76,3.14,6.74,7.77Z"/>
</svg>